<?xml version="1.0" encoding="UTF-8"?>
<svg width="469px" height="89px" viewBox="0 0 469 89" version="1.1" xmlns="http://www.w3.org/2000/svg" xmlns:xlink="http://www.w3.org/1999/xlink">
    <title>logo-rekai-blue</title>
    <g id="logo-rekai-blue" stroke="none" stroke-width="1" fill="none" fill-rule="evenodd">
        <g id="Group">
            <g id="Group-3" transform="translate(0.000000, 25.000000)">
                <rect id="Rectangle" fill="#0A00A2" x="0" y="0" width="120" height="25" rx="12.5"/>
                <rect id="Rectangle" fill="#0A00A2" x="0" y="37" width="64" height="25" rx="12.5"/>
                <rect id="Rectangle" fill="#BD10E0" x="76" y="37" width="44" height="25" rx="12.5"/>
            </g>
            <path d="M189.71987,87 L189.71987,62.384913 C189.71987,58.729207 190.091205,55.3172147 191.081433,52.270793 C194.052117,43.0096712 201.602606,39.2321083 208.286645,39.2321083 C210.390879,39.2321083 212,39.4758221 212,39.4758221 L212,24.2437137 C212,24.2437137 210.638436,24 209.153094,24 C199.498371,24 191.947883,31.0676983 189.100977,39.9632495 L188.85342,39.9632495 C188.85342,39.9632495 189.100977,37.8916828 189.100977,35.5764023 L189.100977,24.8529981 L174,24.8529981 L174,87 L189.71987,87 Z M251.331959,89 C266.781443,89 276.270103,80.1142322 276.270103,80.1142322 L270.309278,69.0374532 C270.309278,69.0374532 262.402062,75.8539326 252.426804,75.8539326 C243.181443,75.8539326 234.787629,70.2546816 233.814433,59.4213483 L276.635052,59.4213483 C276.635052,59.4213483 277,55.2827715 277,53.4569288 C277,37.0243446 267.389691,24 249.507216,24 C231.016495,24 218,37.3895131 218,56.5 C218,74.1498127 230.773196,89 251.331959,89 Z M261,49 L234,49 C235.452915,40.9056604 240.901345,36 248.7713,36 C255.55157,36 260.757848,40.5377358 261,49 Z M305.272152,87 L305.272152,59.6746479 L313.208861,59.6746479 L329.443038,87 L347,87 L325.234177,52.6901408 L325.234177,52.4450704 L344.594937,24.5070423 L327.639241,24.5070423 L312.848101,46.5633803 L305.272152,46.5633803 L305.272152,0 L290,0 L290,87 L305.272152,87 Z M372,87 L372,71 L356,71 L356,87 L372,87 Z M403.993258,89 C418.069663,89 422.923596,78.0449438 422.802247,78.0449438 L423.044944,78.0449438 C423.044944,78.0449438 422.818696,79.8605103 422.803093,82.1769226 L422.802247,87.5393258 L437,87.5393258 L437,48.7097378 C437,33.0074906 427.534831,24 411.274157,24 C396.591011,24 387.004494,31.6685393 387.004494,31.6685393 L392.829213,42.7453184 C392.829213,42.7453184 400.959551,36.7808989 409.817978,36.7808989 C416.613483,36.7808989 421.710112,39.5805243 421.710112,47.7359551 L421.710112,48.588015 L419.647191,48.588015 C409.575281,48.588015 383,49.9269663 383,69.6460674 C383,82.0617978 392.950562,89 403.993258,89 Z M408.625,76 C402.125,76 399,72.0547945 399,67.8630137 C399,59.109589 412.125,58 420.25,58 L423,58 L423,59.4794521 C423,67.1232877 417,76 408.625,76 Z M469,87 L469,25 L453,25 L453,87 L469,87 Z" id="rek.ai" fill="#0A00A2" fill-rule="nonzero"/>
            <polygon id="Path" fill="#BD10E0" fill-rule="nonzero" points="469 15 469 1 453 1 453 15"/>
        </g>
    </g>
</svg>